<?xml version="1.0" encoding="UTF-8"?>
<svg width="138px" height="111px" viewBox="0 0 138 111" version="1.1" xmlns="http://www.w3.org/2000/svg" xmlns:xlink="http://www.w3.org/1999/xlink">
    <!-- Generator: Sketch 61.2 (89653) - https://sketch.com -->
    <title>54</title>
    <desc>Created with Sketch.</desc>
    <g id="Page-1" stroke="none" stroke-width="1" fill="none" fill-rule="evenodd">
        <g id="Artboard" transform="translate(-532.000000, -546.000000)" fill="#000000">
            <g id="Group" transform="translate(1.000000, -376.000000)">
                <g id="54" transform="translate(606.576487, 974.679887) rotate(65.000000) translate(-606.576487, -974.679887) translate(541.076487, 920.679887)">
                    <path d="M34.3040626,59.0774163 C36.4360839,49.9532565 38.5035697,41.0602515 40.5968698,32.17194 C41.3783372,28.8559838 42.0119594,25.484879 43.0902905,22.2639661 C44.483086,18.1031803 47.5620206,17.2912051 51.1185185,18.1759295 C60.7049878,20.5625731 64.7331824,27.8879499 68.2568259,35.9232181 C69.1485904,37.9578495 70.2550826,39.9009576 71.3064261,41.8651864 C72.7930915,44.6437371 73.092302,44.6542975 75.0741315,42.0259387 C78.5461465,37.420444 80.0234249,31.9220112 81.8937838,26.6089717 C84.4705141,19.283595 86.4265293,11.741144 89.4761295,4.58238639 C90.7234266,1.65481712 94.0417296,-0.591021593 96.1584971,0.138817319 C98.3456671,0.890950346 100.464781,1.91061275 102.502933,3.01827824 C108.104622,6.06435833 111.330229,11.2401131 114.214383,16.6270752 C119.482835,26.4669934 125.092738,36.1355989 129.393155,46.4683344 C129.962242,47.836489 130.96313,49.1999501 130.585304,50.6866156 C130.215691,52.1462934 129.877759,54.6678751 127.416019,52.2178692 C127.027632,51.831829 126.625165,51.5302718 126.01853,51.7168383 C121.939881,52.9735224 120.39924,49.9896311 118.714274,47.3026036 C113.787275,39.4527285 108.888437,31.582906 103.950877,23.7388978 C103.47214,22.9785511 103.170583,21.6631984 102.013636,21.9553686 C101.185233,22.1642293 101.328385,23.4103529 100.99984,24.1765665 C98.6120231,29.7418815 98.0793111,35.8340417 96.0599336,41.5037871 C94.9499214,44.621443 93.7624664,47.6968574 91.943736,50.4883153 C90.7750551,52.2788847 89.6556558,54.0588938 87.2690122,54.4848287 C86.5919751,54.6056863 85.7858669,55.0949834 85.4162539,55.6617233 C83.2067898,59.0480819 80.0445457,57.7937447 77.0817751,57.4933608 C68.9221292,56.6649584 62.7431393,52.62151 58.2385547,45.8581797 C58.0813226,45.6223314 57.7304836,45.5132076 57.2341462,45.1928764 C56.5711896,47.3084705 55.5609142,49.023944 55.1971681,51.3014638 C53.8982426,59.4611098 52.7729765,67.6817712 49.8512741,75.521086 C48.697847,78.614101 46.4895563,80.4680327 43.7685009,81.5111626 C41.4252721,82.408794 39.052709,80.4070172 36.4302171,80.638172 C31.3365986,81.0887478 28.3409736,77.5932652 25.6539461,73.9311636 C24.4019555,72.2239037 23.3517854,70.3676253 22.1971849,68.5582819 C19.0102999,71.6630307 19.2273742,75.9704884 18.2487799,79.6830452 C16.789102,85.2178525 14.7967122,90.5050778 12.7268797,95.7923031 C11.3997932,99.1845286 10.8412669,102.831376 8.50390499,105.899751 C6.57135726,108.435413 4.1025774,107.209237 2.13717519,107.073125 C0.779580938,106.980429 -0.587400304,104.946971 0.263296177,102.509872 C6.20526443,85.4947688 8.83714334,67.8249229 10.368397,49.948563 C10.6652607,46.4824149 12.7585608,43.6405019 14.9680249,43.9620066 C17.1070865,44.2717774 19.223854,44.9851891 21.2514451,45.7748701 C26.2969553,47.7390989 29.3899703,51.7813739 32.0324096,56.2660111 C32.5580814,57.1566023 32.7423012,58.3041625 34.3040626,59.0774163" id="Fill-141"></path>
                </g>
            </g>
        </g>
    </g>
</svg>