<?xml version="1.0" encoding="UTF-8"?>
<svg width="169px" height="96px" viewBox="0 0 169 96" version="1.1" xmlns="http://www.w3.org/2000/svg" xmlns:xlink="http://www.w3.org/1999/xlink">
    <!-- Generator: Sketch 61.2 (89653) - https://sketch.com -->
    <title>84</title>
    <desc>Created with Sketch.</desc>
    <g id="Page-1" stroke="none" stroke-width="1" fill="none" fill-rule="evenodd">
        <g id="Desktop-HD" transform="translate(-1151.000000, -1388.000000)" fill="#000000">
            <g id="84" transform="translate(1151.000000, 1387.000000)">
                <path d="M145.18059,2.36075688 C145.193742,2.41133645 145.206388,2.46191601 145.21954,2.51198978 L153.004894,2.51198978 C153.001353,2.46191601 152.998318,2.41133645 152.994271,2.36075688 L145.18059,2.36075688 Z M69.2583396,63.0147599 C71.8714992,60.4417775 74.7310019,58.0630205 76.1164924,54.5234625 C73.8306101,57.3544008 71.5447278,60.1843275 69.2583396,63.0147599 L69.2583396,63.0147599 Z M82.6579906,33.6942918 C82.6579906,33.1895077 82.6989635,32.6806773 82.6519205,32.1804454 C81.8941751,24.1165453 75.289953,22.0336788 69.3918808,23.6765031 C67.4686844,24.2116349 65.848485,25.2561029 64.2996088,26.3951547 C62.9191767,27.4097808 61.5458262,28.5326471 60.4790137,29.8573259 C57.8167878,33.1642179 56.2982619,37.059856 55.4833567,41.1891717 C54.3497736,46.9339988 54.1196172,52.6778142 56.2952269,58.2764663 C57.569433,61.5530105 59.444069,64.3662459 62.533728,66.2589333 C63.4224856,66.8031694 63.9945884,66.6473843 64.6810107,65.9868152 C69.7191581,61.1392697 74.352635,55.9644743 77.7796881,49.8165282 C80.5774785,44.7990353 82.6079126,39.5423011 82.6579906,33.6942918 L82.6579906,33.6942918 Z M128.768168,5.6858575 C132.896818,4.73142111 137.024963,3.77749051 141.153613,2.82305411 C137.918273,3.30204259 134.699119,3.9175959 131.503234,4.63582573 C130.566422,4.84623672 129.694863,5.3484918 128.79093,5.71367627 C126.868745,5.67574159 125.412438,6.79354998 123.907063,7.78541526 C125.527263,7.08589987 127.147968,6.38587869 128.768168,5.6858575 L128.768168,5.6858575 Z M61.3242692,68.9431908 C56.2319971,65.7415043 53.0755674,61.2722939 51.6157187,55.7753068 C48.82501,45.2653789 50.4376218,35.4215839 57.147564,26.7315088 C60.2984295,22.6502437 64.6329561,20.0985046 69.7960455,19.3372822 C74.1548523,18.6949217 77.9663423,20.1480726 81.1890368,23.0912975 C84.3950386,26.0183369 86.4634105,29.6701816 86.8104155,33.9795605 C87.1073424,37.6723746 86.7800652,41.4228493 85.3637185,44.9340828 C84.2301354,47.742766 83.0656961,50.5509435 81.6791939,53.2387416 C80.8440552,54.8577935 79.6052577,56.2826198 78.4650987,57.7291954 C75.7851685,61.1276364 73.0556661,64.4866253 70.387876,68.1541496 C71.3869063,67.868375 72.4284269,67.6817364 73.3768733,67.2770999 C76.4376996,65.9706297 78.8869676,63.8129055 81.0757291,61.3719357 C86.3485853,55.4905438 89.8687126,48.5328188 93.194598,41.4567376 C96.0869802,35.3022161 99.0304521,29.1719728 102.99167,23.6006337 C110.750721,12.6885983 121.122425,5.73441389 134.22009,2.81192661 C142.242177,1.02191579 150.362396,1.32691057 158.483626,1.35978729 C161.540406,1.37192638 164.598703,1.12408651 167.656494,1 C167.823421,0.993591235 167.993382,1.04366501 168.349492,1.09323298 C167.979219,1.4402088 167.731358,1.6728748 167.68128,1.719408 C168.115795,2.07295916 168.557898,2.43308566 169,2.79270637 C168.620621,3.24387609 168.325718,3.86296997 167.841631,4.10625768 C167.124352,4.46688998 166.283144,4.6742662 165.476838,4.74710077 C163.262279,4.94689006 161.037097,5.02124202 158.818491,5.18461401 C156.285254,5.3717584 153.756063,5.6160577 151.22232,5.80067312 C150.606715,5.84568893 149.973912,5.68181114 149.361848,5.74149503 C146.432539,6.02676377 143.486033,6.22604726 140.58758,6.70807052 C137.985549,7.14153739 135.458888,8.02364501 132.85888,8.48037848 C130.878018,8.82836589 129.058519,9.52636389 127.248124,10.3154051 C122.891846,12.2146678 118.740433,14.3622761 115.145948,17.6246581 C110.10426,22.2000856 106.091446,27.5645543 102.596105,33.2982538 C100.513569,36.7154092 99.1741101,40.5781706 97.374844,44.1779183 C95.5163948,47.8950105 93.5355329,51.5524189 91.5501184,55.2042635 C90.5495706,57.0443481 89.5813965,58.9390586 88.3092137,60.5854234 C86.6859793,62.6870044 84.8239893,64.6145916 82.9614934,66.5158775 C81.7525404,67.7485015 80.4707467,68.9755617 79.0255673,69.8971214 C75.6718607,72.0376486 71.9767135,72.6870902 68.100982,71.6082281 C66.9183326,71.2794609 66.0745947,71.3892186 65.1165373,72.2293451 C58.0277223,78.4460795 50.1194496,83.417545 41.5181787,87.2443949 C36.3864513,89.5280623 31.2380312,91.838031 25.9287547,93.6401809 C19.0807186,95.9643119 11.9787518,97.2601604 4.68304904,96.9561772 C3.50343461,96.907115 2.30611585,96.6779896 1.17506188,96.3375891 C0.704632459,96.1959663 0.386966139,95.5450073 0,95.1262085 C0.424398157,94.8424572 0.825021925,94.3745962 1.27875869,94.3159239 C2.05269097,94.2157764 2.86102024,94.3629629 3.65265685,94.4251758 C4.18783355,94.4671568 4.72705695,94.6305288 5.25161105,94.5875362 C10.9094101,94.120181 16.4326562,92.9305496 21.8071859,91.1506547 C35.8087842,86.5130144 48.6368382,79.7090513 59.9504129,70.1692395 C60.3667176,69.8182173 60.7643064,69.4439285 61.3242692,68.9431908 L61.3242692,68.9431908 Z" id="Fill-1"></path>
            </g>
        </g>
    </g>
</svg>