<?xml version="1.0" encoding="UTF-8"?>
<svg width="136px" height="326px" viewBox="0 0 136 326" version="1.1" xmlns="http://www.w3.org/2000/svg" xmlns:xlink="http://www.w3.org/1999/xlink">
    <!-- Generator: Sketch 61.2 (89653) - https://sketch.com -->
    <title>32</title>
    <desc>Created with Sketch.</desc>
    <g id="Page-1" stroke="none" stroke-width="1" fill="none" fill-rule="evenodd">
        <g id="Artboard" transform="translate(-1153.000000, -133.000000)" fill="#000000">
            <g id="Group" transform="translate(1.000000, -376.000000)">
                <g id="32" transform="translate(1152.974504, 509.915014)">
                    <path d="M48.3429045,174.506009 C47.7726445,173.86652 49.099731,173.990898 48.4297342,173.454666 C47.7949386,172.945421 48.1739385,172.275425 47.9826785,171.711031 C47.8876352,171.429422 47.6916816,171.407127 47.5403163,171.592521 C47.0510192,172.318839 47.8019788,173.279833 47.1495826,173.915802 C46.7928768,173.989725 46.5018799,174.049567 46.1932824,174.112929 C46.5359078,175.19478 47.7832048,175.48343 48.0413472,176.491359 C47.617759,178.095362 46.361075,177.805538 45.2381556,177.84074 C45.1172981,177.845433 45.0046541,178.077761 44.8873167,178.206832 C45.351973,178.840455 46.1580812,178.109442 46.5089202,178.516603 C47.4570067,179.949293 45.6265426,179.47877 45.5232856,180.655665 C45.580781,180.497259 46.2848057,180.443284 45.9257531,180.89034 C45.4188553,181.293981 44.6444282,180.681479 44.1985459,181.336222 C44.6890164,183.075163 44.2407874,184.432757 42.4478712,186.643395 C42.5980631,186.793587 42.748255,186.944952 42.898447,187.093971 C42.660252,187.665404 41.8482768,187.17728 41.6300292,187.782741 C41.3765803,188.41519 42.0477505,188.638131 42.2049827,189.08988 C40.41676,192.019797 40.41676,192.019797 40.3299303,193.827967 C39.5824908,194.446335 38.6097633,195.25127 37.6370359,196.056205 C37.1723796,197.051226 38.2096426,197.460734 38.3117262,198.103743 C37.3847604,198.974387 36.4929958,199.938901 36.5633983,201.215532 C36.6150268,202.146018 36.1339432,202.760866 35.8652405,203.508306 C35.2351384,205.269541 34.566315,207.019042 33.9702407,208.792011 C33.8669838,209.097088 33.7672469,209.609853 34.4759651,209.788206 C35.0262777,208.883534 35.5707235,207.984729 35.9086553,206.881757 C36.631454,204.531488 37.3847604,202.154232 38.4830389,199.968235 C39.589531,197.761118 39.930983,195.218415 41.576054,193.234239 C41.9327598,192.804784 42.1287133,191.979902 42.3481344,191.333372 C43.5520165,187.787435 45.2322888,184.437451 46.9113876,181.0816 C47.8242729,179.257003 49.1842139,177.547396 49.300378,175.369613 C49.3109384,175.1807 49.2088548,174.98592 49.1572263,174.793486 C48.7876134,174.663242 48.416827,174.531824 48.3429045,174.506009 M30.3409935,181.647166 C30.7235136,181.941683 30.9312009,182.101262 31.1999036,182.306603 C31.5636497,181.129708 31.504981,180.112393 30.6472443,179.109157 L31.6927209,179.109157 C31.8065382,178.940191 32.0412131,178.745411 32.009532,178.61634 C31.7384825,177.515715 32.2359933,176.534774 32.7205969,175.706371 C33.2885102,174.735991 34.3586277,174.042526 33.9526401,172.684932 C33.9244791,172.589889 33.9150921,172.417403 33.967894,172.379855 C35.995485,170.949511 36.1527172,168.280084 37.8060018,166.602159 C38.3481008,166.050673 38.4067695,166.819233 38.9265744,166.944784 C39.113141,164.568701 38.79985,162.040079 40.9881934,159.953819 C41.0222212,159.950299 41.5255989,159.889284 42.0137226,159.831788 C42.3223201,159.672209 42.2988526,159.561912 42.061831,159.363612 C41.3754069,158.786312 41.3507661,158.006018 41.9010787,157.431064 C43.5414562,155.715591 44.1868121,153.456845 45.2287686,151.433947 C47.1495826,147.70731 49.4693439,144.229428 51.5602972,140.614262 C53.6665044,136.972107 55.8959158,133.42969 58.2520517,129.949461 C61.3579739,125.360394 64.357119,120.70679 67.5803787,116.189299 C69.6642917,113.26525 71.7658054,110.307173 73.6866194,107.238798 C75.5147368,104.314749 77.8567922,101.718072 79.8808631,98.9090132 C82.2545996,95.611831 84.9803485,92.5892184 87.1945061,89.1570981 C88.3009982,87.4439714 90.0059113,86.1356588 91.2391279,84.4272256 C95.8141149,78.0863101 101.562476,72.8026049 107.045655,67.2853982 C108.037157,66.2892033 108.992283,65.2308195 110.872029,65.2482036 C110.258354,67.0002682 109.676361,68.5280017 108.429064,69.7518313 C106.60212,71.5447475 104.80451,73.3681714 102.993993,75.1786882 C102.089321,76.0833599 100.98987,76.8683474 100.333953,77.9267311 C99.6768636,78.9874617 98.6853622,79.6997 98.0200589,80.7346162 C97.3629692,81.7566254 96.4418702,82.5885479 95.7155514,83.6046901 C94.4612141,85.3635785 92.8572112,86.8936587 91.4210009,88.5352096 C89.5858433,90.6332031 88.3009982,93.0879025 86.4670139,95.1741623 C84.5943083,97.3073571 83.0372404,99.7162948 81.2994728,101.972694 C80.7397732,102.699013 79.9078507,103.167189 79.9606526,104.333523 C79.9817733,104.787619 79.2765753,105.336758 78.8130924,105.739226 C77.1551143,107.175436 76.1589193,109.093903 74.9773313,110.878606 C73.7605419,112.718457 72.573087,114.578256 71.3527776,116.41576 C67.8514282,121.686558 64.4369085,127.019545 60.7935808,132.19178 C58.4820331,135.476055 56.8745101,139.179225 54.4291978,142.36611 C54.3728758,143.866856 52.6233745,144.209481 52.2725355,145.645691 C52.0038328,146.738103 51.5837647,147.889183 50.6544521,148.838443 C49.9879754,149.519 49.1607465,150.193691 48.758279,151.161725 C48.3417311,152.162613 47.8993689,153.159981 47.3748705,154.106894 C46.8433319,155.069061 46.285979,156.045309 45.5749141,156.872538 C44.828648,157.739662 44.6139204,158.875488 43.9580041,159.712104 C43.584871,160.187321 43.8746945,161.11898 43.0603726,161.160048 C42.2953325,161.199943 42.1791684,161.596544 42.2753851,162.178537 C42.4607783,163.290896 41.7180323,164.078231 41.3531128,164.981729 C40.8520819,165.170642 40.2806486,164.782255 39.7432431,165.293846 C40.7617321,167.137218 38.9312679,168.652044 39.0697261,170.453174 C37.145392,170.782892 37.9491535,172.765895 37.0785097,173.733929 C36.1797048,174.734817 36.3263766,176.174548 35.5202684,177.256399 C34.2131292,179.012941 33.579507,181.134402 32.6560613,183.100977 C31.7736837,184.978376 30.8678387,186.858122 29.7977212,188.629918 C29.3494921,189.373837 29.4539224,189.737583 30.1778945,190.343044 C27.9250155,191.27353 29.1382847,194.676316 26.3280529,195.322846 C26.5251798,195.636137 26.9464212,196.01983 26.8724986,196.233384 C26.2001551,198.191746 25.845796,200.262752 24.7533844,202.075616 C23.8757003,203.532947 23.0965796,205.100575 23.1306075,206.813702 C23.1458614,207.667918 22.6612577,208.29802 22.3573537,208.740383 C20.4130722,211.563521 20.1385026,214.897078 19.2537783,218.031161 C18.5532737,220.511675 17.6626825,222.918266 16.849534,225.356538 C15.8474722,228.362724 14.6459368,231.302027 14.0627697,234.454884 C13.7048905,236.383911 12.8096058,238.207335 12.3320424,240.122282 C11.9929371,241.48457 11.2255502,242.803443 11.5587886,244.280721 C11.807544,245.384867 10.6728909,246.068944 10.7867082,247.229411 C10.8277763,247.653 9.99233369,248.556498 10.3208785,249.164306 C10.732733,249.928173 8.95624405,250.273145 10.1225783,250.961916 C9.69194983,252.342977 9.50890342,253.877751 8.77319763,255.072246 C7.54467457,257.06581 7.75118848,259.336289 7.13516689,261.436629 C6.14718559,264.812428 6.51093168,268.486263 5.14747056,271.822167 C5.78461289,273.351074 3.86145215,274.831872 5.10053558,276.446435 C5.39622594,276.832476 4.55374308,277.372228 4.45517963,278.057479 C3.92716112,281.71254 3.00840892,285.32888 3.27711167,289.051997 C3.3357804,289.863972 2.17296631,290.619626 3.2114027,291.411653 C2.14832544,292.206028 2.68455757,293.348895 2.60476811,294.341569 C2.52732539,295.295523 2.92392596,296.443083 2.52145852,297.184656 C1.51587661,299.036241 3.01310242,300.683658 2.62119535,302.456627 C2.2926505,303.939772 3.02248942,305.582497 1.96879915,306.999933 C1.81626047,307.206447 1.8103936,307.747372 1.96997253,307.925725 C3.03774328,309.114354 2.65874333,310.558778 2.53319227,311.834236 C2.31377124,314.067167 3.46367821,316.092412 3.27241817,318.298356 C3.25012406,318.562365 3.84502491,318.880349 4.34253568,319.353219 C4.39299078,317.231758 5.00079875,315.275743 4.02103108,313.293914 C3.76523545,312.777629 3.87553265,312.063044 3.8731859,311.439982 C3.86262553,307.707478 3.94710849,303.971453 3.83211779,300.241296 C3.78048931,298.553984 4.82127246,297.121293 4.55726321,295.377659 C4.32024156,293.813551 4.07617968,292.014768 4.62297217,290.631359 C5.22843339,289.098932 4.67342728,287.485542 5.37393183,286.149069 C6.13427848,284.702298 5.45254792,283.23206 5.80808038,281.840438 C6.5696004,278.85772 6.41471497,275.725984 7.15394088,272.787854 C7.76761572,270.353102 8.04570547,267.854988 8.78727812,265.471864 C8.95976417,264.918031 7.86148568,264.610607 8.77319763,264.049734 C9.3211635,263.712976 8.94099018,262.864626 8.97267129,262.250951 C9.00317902,261.687732 9.79872691,261.545753 9.62741424,260.916825 C9.4361542,260.208106 10.1789002,259.795079 10.2258352,259.257673 C10.3572531,257.728766 10.5379528,256.233887 10.8148692,254.710847 C11.3534481,251.74221 12.2135315,248.868616 12.872968,245.941046 C14.2645901,245.021121 12.8647544,243.352582 13.9489524,242.197982 C14.7503671,241.343765 14.5438532,239.893474 14.8207696,238.735354 C15.7383484,234.883165 16.8460139,231.062658 18.1179518,227.31138 C19.0108898,224.678328 20.2018648,222.174347 20.5808648,219.353554 C20.7427905,218.153192 21.4585489,216.924669 22.004168,215.809964 C23.5847034,212.583184 24.4048922,209.113516 25.5618394,205.762358 C26.1180189,204.152488 26.9839692,202.718625 27.6281518,201.173291 C28.6865355,198.625895 29.2086872,195.882545 30.6930059,193.471261 C31.6633865,191.894245 31.6000243,189.742277 33.2368817,188.456258 C32.4988292,186.664515 34.4654047,185.786831 34.6672252,184.227417 C34.8655254,182.70203 36.0905284,181.454733 36.5551847,179.905879 C36.9752527,178.50487 37.7449864,177.198904 38.4419708,175.894111 C39.1401286,174.584625 39.9391966,173.329115 40.6948497,172.046616 L42.1885554,172.046616 C41.921026,171.294483 41.3284719,170.646781 41.6182954,169.896994 C41.8506236,169.383056 42.3645616,169.594264 42.7024934,169.393617 C42.7717225,169.20705 42.9031405,169.021657 42.898447,168.838611 C42.851512,166.635013 43.7620506,164.593342 44.9178244,162.976432 C46.9735765,160.099318 48.159858,156.816216 49.8788516,153.794777 C51.8935356,150.251186 54.0513712,146.783864 55.9862657,143.206246 C58.2673056,138.986791 61.1538068,135.16159 63.441887,130.950349 C65.0200756,128.048594 67.077001,125.403808 68.9520534,122.667499 C71.3469107,119.174363 73.904867,115.785658 76.148359,112.198652 C77.975303,109.27695 80.1730334,106.639204 82.1231817,103.816065 C84.0862372,100.974152 86.0375589,98.1064251 88.3139053,95.4698527 C90.302775,93.167692 91.9560597,90.5780545 93.7947374,88.1421292 C95.8223285,85.456275 98.0364861,82.9217862 100.042956,80.2159847 C101.380603,78.4113348 102.867269,76.6137251 104.477138,74.983908 C107.250996,72.1771963 110.050667,69.3939521 112.850339,66.6130546 C113.204698,66.2610423 113.46636,65.7142498 114.207933,65.8386275 C115.048069,66.6212683 114.584586,67.488392 113.904029,68.259299 C115.412988,68.6688067 115.565527,67.081231 116.627431,67.0964849 C117.184784,67.1598471 117.354923,67.7711752 117.793765,68.0504383 C116.747115,68.4094909 117.981505,69.230853 117.482821,69.6204134 C116.948936,70.0381347 117.35023,70.9345928 116.589883,71.1786546 C116.667326,71.9401747 117.567304,71.2866051 117.853607,72.1865833 C116.87384,73.451481 115.803722,74.908812 114.652642,76.2992608 C113.867654,77.246174 112.917221,78.0123875 112.352828,79.1881087 C111.886998,80.1584894 110.433187,80.5726905 110.723011,82.0534891 C110.775813,82.3233652 110.253661,82.3433126 110.036587,82.4899844 C108.533494,83.5061267 107.140699,85.6111605 106.257148,87.8112376 C105.773717,89.0151198 104.953529,90.0981444 104.214303,91.0990328 C102.886043,92.9001626 101.404071,94.5909952 100.201362,96.4989021 C100.006582,96.8086729 99.6299286,97.0198803 99.2415417,97.2240475 C97.5483623,98.1122919 96.4301365,99.5015673 96.0135885,101.437635 C95.798861,102.436177 95.3905267,102.727174 94.2112854,103.8454 C93.6433721,104.386325 93.2057035,105.122031 92.7457407,105.759173 C90.854261,108.375798 89.2725523,111.198937 87.344698,113.768627 C86.1783638,115.324522 86.3086084,117.5598 84.5098254,118.69328 C84.8630111,120.156478 83.4819493,120.618787 82.8987822,121.550447 C81.4719589,123.82914 79.5429313,125.860251 78.8318664,128.489783 C78.5784175,129.429656 76.966201,128.850009 77.4695786,130.121947 C75.9265912,132.215247 75.0723746,134.715708 73.5786689,136.814875 C73.0060622,137.61981 71.9300778,138.285113 71.7798859,139.212079 C71.4924091,140.975661 69.3134528,141.755955 69.643171,143.729571 C67.8713755,144.511038 67.8420412,146.300434 67.1650041,147.765979 C66.6416791,148.898285 65.4213697,149.556548 65.2136824,151.092495 C65.0388496,152.383207 64.0614287,153.578876 63.3808715,154.785105 C62.6991409,155.996027 61.6172897,156.981662 61.3485869,158.424912 C59.7445841,158.708869 59.7269834,160.281191 59.1848844,161.319627 C58.600544,162.437853 57.6677113,163.480983 57.6501106,164.82919 C57.6360302,165.87936 55.7375103,165.663459 56.3042501,167.141911 C56.6539157,168.053623 55.6342533,168.747088 55.291628,169.566103 C54.9619098,170.354611 54.8915073,171.418861 53.580848,171.47753 C53.207715,171.493957 52.7935138,172.107632 52.5224643,172.526527 C51.4441331,174.191545 51.403065,176.51952 49.3085916,177.538009 C49.4447031,178.750105 48.3170902,179.614882 48.2373008,180.586436 C47.9791584,183.742813 46.0630379,186.140017 44.7394715,188.756642 C43.7597038,190.69271 43.6799144,193.109861 41.8189425,194.595353 C42.1334068,196.274452 40.5552182,197.302328 40.3627848,198.78782 C40.1386702,200.524415 38.70598,201.737684 38.4349305,203.432036 C38.1627077,205.128736 37.0902434,206.505104 36.5950794,208.113801 C36.5117698,208.383677 36.1621042,208.57259 35.8300392,208.904655 C36.6478812,211.746568 33.6194018,213.89619 34.0758444,217.240307 C34.6965595,216.002397 35.1201477,215.157567 35.7725439,213.855122 C35.9321228,216.814372 34.2412902,218.759827 33.7825008,221.058468 C33.3284049,223.325427 32.1608973,225.484436 31.3794299,227.720888 C30.5979625,229.953819 29.5137645,232.108135 28.9787058,234.393868 C28.4319133,236.728883 27.3934769,238.880852 26.8689785,241.218214 C26.350347,243.530935 25.5090375,245.769734 24.7733317,248.159897 C24.3473968,248.195099 23.8416724,248.236167 23.335948,248.278408 C22.0299822,249.865984 22.7410472,252.02382 21.8070411,253.727559 C21.6732764,253.972794 21.9232052,254.467958 21.7671464,254.659219 C20.3426698,256.398159 20.7627378,258.70736 19.8709732,260.60236 C18.9498743,262.559549 19.3945832,264.794827 18.6049022,266.797777 C17.6873234,269.125752 17.6380417,271.682535 16.8002523,274.049231 C16.3661037,275.274234 17.0126331,276.750339 16.0281719,277.890859 C16.4153855,279.791726 15.6327447,281.570562 15.3194537,283.374038 C15.0390172,284.995642 14.6424167,286.578524 14.7398067,288.236502 C13.2003395,289.459158 14.9650946,291.573579 13.4972032,292.863117 C13.2859958,293.049684 13.4397078,293.685653 13.4725623,294.110415 C13.6790762,296.815043 12.8659277,299.3906 12.4763674,302.018958 C12.3637235,302.783999 13.1510577,303.378899 12.8342466,304.196741 C11.5752158,307.449335 12.475194,310.849775 12.1724634,314.168078 C12.0445656,315.564393 12.4000981,316.785876 13.1099896,317.95221 C13.2613549,317.829006 13.4103735,317.704628 13.5840329,317.561476 C15.3405745,318.010879 15.7266147,319.401328 15.3229739,320.825804 C14.9862154,322.008566 13.6884632,321.926429 12.5749309,321.793838 C12.0164046,322.879209 11.5623087,324.158188 9.94422534,323.74164 C9.02781989,323.504618 8.37894381,324.060798 7.64323803,324.411637 C6.85707714,323.975141 6.09438374,323.218315 5.29414236,323.176073 C3.50943981,323.082203 2.67047708,321.840773 2.00752051,320.634544 C1.30936271,319.360259 0.953830247,317.882981 0.606511407,316.411569 C-0.35096215,312.347 0.134814876,308.25779 0.0468117913,304.182661 C-0.0400179185,300.130999 0.0526786636,296.075817 0.0139573065,292.022981 C-2.22044605e-16,290.570344 0.913935515,289.345341 0.737929347,287.800007 C0.581870544,286.428332 0.148895369,284.853663 1.30818933,283.593459 C0.88108103,281.274871 2.20582079,279.155757 1.99461339,276.813702 C1.72708401,273.842718 2.60594148,270.95387 3.25599093,268.075582 C3.40148936,267.433746 3.36863488,266.6734 3.60682989,266.202876 C3.99052334,265.447223 3.94006824,264.720905 3.82273079,264.072028 C3.58336241,262.746115 4.46221987,261.7288 4.63001242,260.506143 C4.80132509,259.2565 5.26246125,257.989255 5.11696282,256.879243 C5.65202157,256.399333 6.22462831,256.751345 6.4546097,255.962838 C5.38801232,254.796503 5.88317634,253.445949 6.38068711,251.93347 C7.35106779,248.98126 8.01050423,245.935179 8.37542369,242.828084 C8.48924101,241.861223 8.90109545,240.923697 9.23198704,239.990864 C10.0744699,237.619475 10.9298599,235.253952 10.9509806,232.444893 C11.2971261,232.189098 11.8063706,231.812444 12.1173148,231.58481 C12.1806771,230.92772 11.4684388,231.02863 11.7500486,230.3645 C12.2510795,229.185259 12.9046491,228.014231 12.8330733,226.65077 C12.8236863,226.45247 12.8647544,226.241263 12.9281166,226.052349 C13.1334571,225.453928 14.7421535,225.290829 13.4819493,224.240659 C14.6154291,223.786563 13.7588657,222.502892 14.5391597,221.780093 C15.0589646,221.300183 15.1152866,220.254706 15.2502246,219.574149 C15.4144971,218.749267 15.9530759,218.121511 16.0422524,217.308363 C16.2135651,215.716094 17.8609828,214.520425 17.2602151,212.834286 C17.5406516,212.258159 18.0628032,212.490487 18.3936948,212.262853 C18.1648868,211.205642 19.0378774,208.313274 20.0704469,206.735086 C20.3602704,206.873544 20.6547874,207.015522 20.9528245,207.1575 C21.023227,206.947466 21.1910195,206.712791 21.1323508,206.5802 C20.7240165,205.676702 19.9179082,204.809578 21.0373075,203.856798 C21.1792858,201.615653 22.2435364,199.603316 23.191623,197.721223 C24.0247188,196.070285 24.4541739,194.381799 24.962245,192.686273 C25.448022,191.06467 26.9182602,189.877215 26.9076999,188.065525 C28.6548544,186.306636 28.6548544,183.602008 30.3409935,181.647166" id="Fill-289"></path>
                    <path d="M53.1498676,87.5818429 C53.2730719,88.8678613 51.809874,89.9966475 52.7732144,91.3648021 C53.6074836,91.7226813 53.8198644,90.8696381 54.4487931,90.5727744 C54.2833473,88.6730811 55.0542543,87.1629482 55.9788734,85.4815026 C56.8917587,83.8223511 58.305675,82.5175587 58.992099,80.6683206 C59.6398017,78.9270329 60.9516344,77.4251136 62.0147116,75.8480983 C63.0860025,74.2570025 64.212442,72.7046281 65.3083737,71.131133 C66.1743241,69.8920495 66.9194169,68.5497092 67.9109183,67.4209229 C70.2764412,64.7256818 72.306379,61.784032 74.4782951,58.9456392 C75.605908,57.4718809 76.9752359,56.199943 78.1263163,54.7074107 C80.1022789,52.1459343 82.587486,49.9787116 84.5880894,47.4313157 C86.7424049,44.690313 89.4282591,42.4526879 91.5954817,39.773874 C96.4814129,33.735689 102.396394,28.7242067 107.730554,23.1377709 C108.596504,22.2295791 109.53051,21.3788826 110.401154,20.4577837 C112.312581,18.4372328 114.119578,16.1996078 116.873488,15.2714686 C117.934218,14.9135894 117.410893,13.7073604 118.510345,13.192249 C119.467819,12.7451934 120.561404,11.8064938 121.300629,10.7821379 C122.051589,9.74252812 123.182722,9.07839818 124.081527,8.2136212 C125.163378,7.17401143 126.434143,6.22944499 127.615731,5.12881975 C128.802012,4.97158758 130.050483,4.83078264 131.287219,4.61488174 C131.497253,4.57850713 131.649792,4.21828117 131.804678,4.03523476 C131.559442,3.42742679 130.569114,4.14318521 130.604316,2.87946092 C131.446798,1.79878304 132.538037,0.624235211 134.248817,0 C134.570321,0.125551067 134.321566,0.650049449 134.539813,0.957473557 C134.745154,1.2449503 135.247358,1.40452923 134.714646,1.87622576 C134.133826,2.39133714 135.01151,2.44296562 135.049058,2.80905845 C134.388448,3.49665588 133.442708,2.80436495 132.724603,3.20683239 C131.801157,4.10094373 133.412201,4.38959384 133.10595,5.24733057 C132.478195,5.85631192 131.538322,6.13088154 130.632477,6.55681647 L130.632477,7.74192467 C129.104743,9.34710093 126.55148,9.71906063 125.777053,12.0775433 C125.40744,13.1992893 123.818691,12.9153327 123.473719,14.2799671 C123.232004,15.2327472 121.903744,15.4345676 121.062434,15.8851434 C120.476921,16.0224282 120.395958,15.4040599 119.907834,15.3078432 C119.186209,16.5269792 120.641193,16.7722145 120.979125,17.5126138 C120.456973,18.033592 119.930128,18.5604372 119.40211,19.0884557 C119.179168,18.8866353 118.953881,18.6836415 118.728593,18.4818211 C118.137212,19.2269139 116.94741,19.1260037 116.543769,20.029502 C116.330215,20.6830716 116.810125,20.9940158 117.137497,21.3530684 C116.799565,21.6910002 116.498008,21.9925575 116.201144,22.2894212 C115.978203,22.0864274 115.754088,21.8822603 115.522934,21.6733996 C115.080571,23.3395913 115.080571,23.3395913 113.707723,24.7816685 C112.927429,24.7511608 113.71007,23.4440217 112.199937,23.6587492 C111.369188,24.0635634 112.027451,26.3739377 110.161786,26.3950584 C110.3859,26.7177364 110.605321,27.0310274 110.965547,27.5473121 C109.787479,28.4684111 108.906275,29.7180549 107.80565,30.5429371 C106.56422,31.4745964 105.956412,32.8838192 104.599991,33.7861441 L102.654536,33.7861441 C102.625202,34.8715155 101.342703,35.3361718 101.200725,36.2678311 C100.724335,39.4007409 98.2062734,40.9073537 96.1622551,42.7120036 C95.4136422,43.3737868 94.4608621,43.7715608 94.1194101,44.8076504 C94.0102863,45.1397154 93.8917755,45.3462293 93.4986951,45.3450559 C91.8383702,45.3438825 91.0651164,46.2485542 90.8961505,47.8466902 C90.8116676,48.6551452 90.293036,49.152656 89.4411662,49.1772969 C88.0624512,49.2160182 87.6494234,50.330724 87.0580427,50.9678663 C87.1120179,52.1119064 88.0624512,51.4395628 88.3440611,52.1494544 C87.5473398,52.3008197 87.5649404,54.0432808 86.1310768,53.1116214 C86.0419004,53.0541261 85.3108881,53.5962251 85.297981,53.8790083 C85.2428324,55.0113147 84.79343,55.8631845 83.8969719,56.513234 C84.1891421,58.0679551 82.9840865,58.8024876 82.0653343,59.5757413 C80.8415048,60.6047907 80.1257464,62.0222271 79.2351552,63.2484034 C78.1251429,64.7749635 76.9787561,66.0821027 75.3465922,67.0020283 C74.8924963,67.2578239 74.5181898,67.6520777 74.2095924,67.8996597 C74.3656512,69.2232261 74.0875614,70.0492817 73.3565491,70.9856345 C70.9405711,74.0833431 68.4201628,77.1282498 66.5979122,80.6448531 C65.9619433,81.8710294 64.8214233,82.2887507 63.6292749,82.4166485 C62.8489809,82.4987847 62.6013988,83.0713915 62.2282658,83.3318806 C62.9663183,85.3242704 60.6512505,86.7722145 61.5864299,88.4982483 C60.6817582,89.1154433 59.9120246,88.6730811 59.1164767,88.9746383 C58.6424334,90.6760313 58.1355357,92.4888948 57.6345048,94.2853311 C57.8809134,94.8579379 58.7128359,94.3439999 58.9322569,95.2357645 C58.7668111,95.992591 57.7929103,96.707176 58.4945882,98.277151 C57.7389351,97.6059809 57.5136472,97.4053338 57.2942262,97.2105537 C56.7380467,97.4475753 57.300093,98.3135257 56.5526535,98.4472903 C55.6491552,98.5787083 55.4215205,97.6634762 54.8512606,97.2844763 C53.9864836,97.7233183 53.1264001,98.1586402 52.3155984,98.5704947 C51.4907161,97.8265753 51.9553724,97.3759995 52.4505364,96.9230769 C52.07623,96.4713278 51.8427284,95.8353588 51.0307533,95.9045879 C50.1964841,95.9104548 50.898162,96.8843556 50.2434191,97.1424979 C48.7414998,95.4751328 50.7761311,93.5683993 49.660252,91.8834336 C50.337289,91.3870962 50.8477069,91.0116164 51.3522579,90.6431768 C51.0718214,90.3322326 50.9368834,90.1820407 50.6893014,89.907471 C51.1692115,88.9605579 51.6749359,87.9491091 52.1982609,86.9482207 C52.2217284,86.9036324 52.4024281,86.9423538 52.5092051,86.9423538 C52.9527407,86.9247532 53.1662948,87.1383073 53.1498676,87.5818429" id="Fill-291"></path>
                    <path d="M53.1498676,87.5818429 C53.1662948,87.1383073 52.9527407,86.9247532 52.5092051,86.9423538 C52.3296788,84.6507535 53.8491988,82.9810416 54.8301398,81.1963391 C56.4599569,78.2277017 58.4711208,75.4632315 60.3004115,72.607238 C61.6509655,70.4963374 63.4063337,68.5544027 64.9188134,66.4951305 C66.9722187,63.6989792 69.357689,61.172704 71.3125308,58.2908963 C72.4683047,56.5895033 74.067614,55.190841 75.4287284,53.6290796 C77.3471957,51.4301758 78.9641057,48.9543557 81.1946905,47.0065541 C82.349291,45.9997989 83.521492,44.9730962 84.213783,43.4805639 C84.5141668,42.8340346 85.1642163,42.2133195 86.134597,42.0126724 C86.6121604,41.914109 86.7459251,40.8592454 87.2586897,40.3054126 C92.3605218,34.8210604 97.4975552,29.3754295 102.827022,24.1081516 C106.123031,20.8496907 109.694783,17.898654 113.056501,14.7105956 C115.727101,12.1772801 118.574881,9.74487487 121.528264,7.53306402 C122.665264,6.68236753 123.580496,5.2508507 125.12935,4.9704142 C125.704304,5.60168966 125.540031,6.08746668 125.037827,6.39606417 C121.819261,8.36615988 119.084125,10.9018221 116.541423,13.6533852 C115.687206,14.5791776 114.431695,14.8901219 113.596253,15.874583 C112.882841,16.7135458 112.188203,17.6053104 110.976108,18.0030843 C110.253309,18.2412793 109.481229,19.0403473 109.205486,19.7678395 C108.74787,20.9764152 107.634337,21.4387247 106.96082,22.3199289 C106.259142,23.2410279 105.34391,23.7760866 104.544842,24.491845 C103.386722,25.5291081 102.835236,27.2258075 101.151443,27.7796403 C101.041146,29.3848165 99.126199,29.4470054 98.6674095,30.5323768 C98.1241372,31.8183952 96.8838804,32.1821412 96.1035864,33.1184941 C95.3678806,34.0008716 94.7389519,35.0228808 93.7990789,35.7761872 C92.8064041,36.5705617 91.9697881,37.5608898 91.0662898,38.4643881 C90.1616181,39.3690598 89.246386,40.2619978 88.3557948,41.1819233 C87.4992315,42.0643009 86.8128074,43.1297249 86.0184329,44.0121025 C84.2724517,45.9505171 82.8737893,48.1681948 80.9248144,49.9552441 C78.8197806,51.8854451 77.1794031,54.2556615 75.4345953,56.5308346 C73.694481,58.7989674 72.0036484,61.1938247 69.9784041,63.1697873 C68.455364,64.6552793 67.8886242,66.8213286 66.048773,67.9618486 C65.9243953,69.542384 64.328606,70.1361114 63.6597826,71.435037 C63.1610985,72.4007241 62.4230459,73.6069531 61.1581483,74.2593493 C60.5339131,74.5808539 60.5327397,76.2787267 59.9483992,76.4793738 C58.829,76.8654139 59.1270371,77.6187204 58.8125727,78.2781568 C58.572031,78.7838812 58.3889845,79.4034229 57.9900372,79.8610389 C56.0586629,82.0728498 54.7820315,84.6577937 53.6790595,87.3483414 C53.6262576,87.4774125 53.3317406,87.5067469 53.1498676,87.5818429" id="Fill-293"></path>
                </g>
            </g>
        </g>
    </g>
</svg>